<mxfile host="app.diagrams.net" modified="2023-12-03T19:57:30.979Z" agent="Mozilla/5.0 (Windows NT 10.0; Win64; x64) AppleWebKit/537.36 (KHTML, like Gecko) Chrome/119.0.0.0 Safari/537.36" etag="M0oQhDqv7pBVhYE6nr61" version="21.3.2" type="github">
  <diagram name="Page-1" id="2dU7M76fELoN2mDq0Bwb">
    <mxGraphModel dx="1562" dy="810" grid="0" gridSize="10" guides="1" tooltips="1" connect="1" arrows="1" fold="1" page="1" pageScale="1" pageWidth="1100" pageHeight="850" math="0" shadow="0">
      <root>
        <mxCell id="0" />
        <mxCell id="1" parent="0" />
        <mxCell id="glwzCVS7DkdntRkq9uP9-33" value="" style="group" vertex="1" connectable="0" parent="1">
          <mxGeometry x="150" y="96" width="732" height="582" as="geometry" />
        </mxCell>
        <mxCell id="glwzCVS7DkdntRkq9uP9-1" value="" style="rounded=0;whiteSpace=wrap;html=1;" vertex="1" parent="glwzCVS7DkdntRkq9uP9-33">
          <mxGeometry width="732" height="582" as="geometry" />
        </mxCell>
        <mxCell id="glwzCVS7DkdntRkq9uP9-2" value="" style="endArrow=none;dashed=1;html=1;rounded=0;" edge="1" parent="glwzCVS7DkdntRkq9uP9-33">
          <mxGeometry width="50" height="50" relative="1" as="geometry">
            <mxPoint x="65" y="532" as="sourcePoint" />
            <mxPoint x="60" y="185" as="targetPoint" />
          </mxGeometry>
        </mxCell>
        <mxCell id="glwzCVS7DkdntRkq9uP9-3" value="&lt;b&gt;User&lt;/b&gt;" style="shape=umlActor;verticalLabelPosition=bottom;verticalAlign=top;html=1;outlineConnect=0;" vertex="1" parent="glwzCVS7DkdntRkq9uP9-33">
          <mxGeometry x="45" y="95" width="30" height="60" as="geometry" />
        </mxCell>
        <mxCell id="glwzCVS7DkdntRkq9uP9-4" value=": HomePageUI" style="rounded=0;whiteSpace=wrap;html=1;" vertex="1" parent="glwzCVS7DkdntRkq9uP9-33">
          <mxGeometry x="145" y="115" width="160" height="40" as="geometry" />
        </mxCell>
        <mxCell id="glwzCVS7DkdntRkq9uP9-5" value=": LoginController" style="rounded=0;whiteSpace=wrap;html=1;" vertex="1" parent="glwzCVS7DkdntRkq9uP9-33">
          <mxGeometry x="310" y="115" width="160" height="40" as="geometry" />
        </mxCell>
        <mxCell id="glwzCVS7DkdntRkq9uP9-6" value=": Firebase" style="rounded=0;whiteSpace=wrap;html=1;" vertex="1" parent="glwzCVS7DkdntRkq9uP9-33">
          <mxGeometry x="535" y="115" width="160" height="40" as="geometry" />
        </mxCell>
        <mxCell id="glwzCVS7DkdntRkq9uP9-7" value="" style="rounded=0;whiteSpace=wrap;html=1;rotation=90;" vertex="1" parent="glwzCVS7DkdntRkq9uP9-33">
          <mxGeometry x="40" y="340" width="315" height="10" as="geometry" />
        </mxCell>
        <mxCell id="glwzCVS7DkdntRkq9uP9-8" value="" style="rounded=0;whiteSpace=wrap;html=1;rotation=90;" vertex="1" parent="glwzCVS7DkdntRkq9uP9-33">
          <mxGeometry x="220" y="345" width="330" height="10" as="geometry" />
        </mxCell>
        <mxCell id="glwzCVS7DkdntRkq9uP9-9" value="" style="rounded=0;whiteSpace=wrap;html=1;rotation=90;" vertex="1" parent="glwzCVS7DkdntRkq9uP9-33">
          <mxGeometry x="633.13" y="350.63" width="60" height="12.5" as="geometry" />
        </mxCell>
        <mxCell id="glwzCVS7DkdntRkq9uP9-10" value="" style="endArrow=classic;html=1;rounded=0;dashed=1;" edge="1" parent="glwzCVS7DkdntRkq9uP9-33">
          <mxGeometry width="50" height="50" relative="1" as="geometry">
            <mxPoint x="65" y="235" as="sourcePoint" />
            <mxPoint x="185" y="235" as="targetPoint" />
          </mxGeometry>
        </mxCell>
        <mxCell id="glwzCVS7DkdntRkq9uP9-11" value="" style="endArrow=classic;html=1;rounded=0;exitX=0.15;exitY=0.01;exitDx=0;exitDy=0;exitPerimeter=0;" edge="1" parent="glwzCVS7DkdntRkq9uP9-33" source="glwzCVS7DkdntRkq9uP9-7">
          <mxGeometry width="50" height="50" relative="1" as="geometry">
            <mxPoint x="206.5" y="236" as="sourcePoint" />
            <mxPoint x="375" y="235" as="targetPoint" />
          </mxGeometry>
        </mxCell>
        <mxCell id="glwzCVS7DkdntRkq9uP9-14" value="" style="endArrow=none;dashed=1;html=1;dashPattern=1 3;strokeWidth=2;rounded=0;exitX=0.328;exitY=1.02;exitDx=0;exitDy=0;exitPerimeter=0;entryX=0;entryY=0.5;entryDx=0;entryDy=0;" edge="1" parent="glwzCVS7DkdntRkq9uP9-33" source="glwzCVS7DkdntRkq9uP9-4" target="glwzCVS7DkdntRkq9uP9-7">
          <mxGeometry width="50" height="50" relative="1" as="geometry">
            <mxPoint x="225" y="205" as="sourcePoint" />
            <mxPoint x="225" y="225.71067811865476" as="targetPoint" />
          </mxGeometry>
        </mxCell>
        <mxCell id="glwzCVS7DkdntRkq9uP9-15" value="" style="endArrow=none;dashed=1;html=1;dashPattern=1 3;strokeWidth=2;rounded=0;entryX=0;entryY=0.5;entryDx=0;entryDy=0;" edge="1" parent="glwzCVS7DkdntRkq9uP9-33" target="glwzCVS7DkdntRkq9uP9-8">
          <mxGeometry width="50" height="50" relative="1" as="geometry">
            <mxPoint x="385" y="155" as="sourcePoint" />
            <mxPoint x="208" y="198" as="targetPoint" />
          </mxGeometry>
        </mxCell>
        <mxCell id="glwzCVS7DkdntRkq9uP9-16" value="" style="endArrow=none;dashed=1;html=1;dashPattern=1 3;strokeWidth=2;rounded=0;entryX=0;entryY=0.5;entryDx=0;entryDy=0;" edge="1" parent="glwzCVS7DkdntRkq9uP9-33" target="glwzCVS7DkdntRkq9uP9-9">
          <mxGeometry width="50" height="50" relative="1" as="geometry">
            <mxPoint x="662.63" y="160" as="sourcePoint" />
            <mxPoint x="662.63" y="190" as="targetPoint" />
          </mxGeometry>
        </mxCell>
        <mxCell id="glwzCVS7DkdntRkq9uP9-17" value="2: resetUserAccount(String emailid)" style="text;html=1;align=center;verticalAlign=middle;resizable=0;points=[];autosize=1;strokeColor=none;fillColor=none;fontSize=11;" vertex="1" parent="glwzCVS7DkdntRkq9uP9-33">
          <mxGeometry x="191" y="199" width="200" height="30" as="geometry" />
        </mxCell>
        <mxCell id="glwzCVS7DkdntRkq9uP9-19" value="3: bufferWriter.write(post_data)" style="text;html=1;align=center;verticalAlign=middle;resizable=0;points=[];autosize=1;strokeColor=none;fillColor=none;" vertex="1" parent="glwzCVS7DkdntRkq9uP9-33">
          <mxGeometry x="420" y="330" width="190" height="30" as="geometry" />
        </mxCell>
        <mxCell id="glwzCVS7DkdntRkq9uP9-20" value="" style="endArrow=none;dashed=1;html=1;rounded=0;entryX=1;entryY=0.5;entryDx=0;entryDy=0;" edge="1" parent="glwzCVS7DkdntRkq9uP9-33" target="glwzCVS7DkdntRkq9uP9-9">
          <mxGeometry width="50" height="50" relative="1" as="geometry">
            <mxPoint x="663" y="532" as="sourcePoint" />
            <mxPoint x="665" y="445" as="targetPoint" />
          </mxGeometry>
        </mxCell>
        <mxCell id="glwzCVS7DkdntRkq9uP9-21" value="1: User Input Details" style="text;html=1;align=center;verticalAlign=middle;resizable=0;points=[];autosize=1;strokeColor=none;fillColor=none;fontSize=11;" vertex="1" parent="glwzCVS7DkdntRkq9uP9-33">
          <mxGeometry x="68" y="200" width="120" height="30" as="geometry" />
        </mxCell>
        <mxCell id="glwzCVS7DkdntRkq9uP9-22" value="" style="rounded=0;whiteSpace=wrap;html=1;" vertex="1" parent="glwzCVS7DkdntRkq9uP9-33">
          <mxGeometry width="150" height="44" as="geometry" />
        </mxCell>
        <mxCell id="glwzCVS7DkdntRkq9uP9-23" value="&lt;b style=&quot;font-size: 15px;&quot;&gt;sd&lt;/b&gt; Reset Password" style="text;html=1;strokeColor=none;fillColor=none;align=center;verticalAlign=middle;whiteSpace=wrap;rounded=0;fontSize=15;" vertex="1" parent="glwzCVS7DkdntRkq9uP9-33">
          <mxGeometry x="2" width="148" height="44" as="geometry" />
        </mxCell>
        <mxCell id="glwzCVS7DkdntRkq9uP9-24" value="&lt;h1 style=&quot;font-size: 13px;&quot;&gt;&lt;span style=&quot;font-weight: normal;&quot;&gt;&amp;lt;&amp;lt;user emailid&amp;gt;&amp;gt;&lt;/span&gt;&lt;br style=&quot;font-size: 13px;&quot;&gt;&lt;/h1&gt;" style="text;html=1;strokeColor=none;fillColor=none;spacing=5;spacingTop=-20;whiteSpace=wrap;overflow=hidden;rounded=0;fontSize=13;verticalAlign=middle;fontStyle=0;fontColor=default;strokeWidth=0;" vertex="1" parent="glwzCVS7DkdntRkq9uP9-33">
          <mxGeometry x="68" y="243" width="135" height="50" as="geometry" />
        </mxCell>
        <mxCell id="glwzCVS7DkdntRkq9uP9-27" value="" style="endArrow=classic;html=1;rounded=0;exitX=0.522;exitY=-0.04;exitDx=0;exitDy=0;exitPerimeter=0;" edge="1" parent="glwzCVS7DkdntRkq9uP9-33" source="glwzCVS7DkdntRkq9uP9-8">
          <mxGeometry width="50" height="50" relative="1" as="geometry">
            <mxPoint x="390" y="354" as="sourcePoint" />
            <mxPoint x="653" y="357" as="targetPoint" />
          </mxGeometry>
        </mxCell>
        <mxCell id="glwzCVS7DkdntRkq9uP9-28" value="" style="endArrow=none;dashed=1;html=1;dashPattern=1 3;strokeWidth=2;rounded=0;entryX=0;entryY=0.5;entryDx=0;entryDy=0;" edge="1" parent="glwzCVS7DkdntRkq9uP9-33">
          <mxGeometry width="50" height="50" relative="1" as="geometry">
            <mxPoint x="385" y="515" as="sourcePoint" />
            <mxPoint x="385" y="545" as="targetPoint" />
          </mxGeometry>
        </mxCell>
        <mxCell id="glwzCVS7DkdntRkq9uP9-29" value="" style="endArrow=none;dashed=1;html=1;dashPattern=1 3;strokeWidth=2;rounded=0;entryX=0;entryY=0.5;entryDx=0;entryDy=0;" edge="1" parent="glwzCVS7DkdntRkq9uP9-33">
          <mxGeometry width="50" height="50" relative="1" as="geometry">
            <mxPoint x="198" y="506" as="sourcePoint" />
            <mxPoint x="198" y="536" as="targetPoint" />
          </mxGeometry>
        </mxCell>
        <mxCell id="glwzCVS7DkdntRkq9uP9-30" value="" style="endArrow=classic;html=1;rounded=0;dashed=1;" edge="1" parent="glwzCVS7DkdntRkq9uP9-33">
          <mxGeometry width="50" height="50" relative="1" as="geometry">
            <mxPoint x="185" y="482" as="sourcePoint" />
            <mxPoint x="65" y="482" as="targetPoint" />
          </mxGeometry>
        </mxCell>
        <mxCell id="glwzCVS7DkdntRkq9uP9-31" value="4: User Receives Password Reset Instruction on their emailid" style="text;html=1;strokeColor=none;fillColor=none;align=center;verticalAlign=middle;whiteSpace=wrap;rounded=0;" vertex="1" parent="glwzCVS7DkdntRkq9uP9-33">
          <mxGeometry x="78" y="436" width="100" height="30" as="geometry" />
        </mxCell>
      </root>
    </mxGraphModel>
  </diagram>
</mxfile>
